<svg
  width="20"
  height="21"
  viewBox="0 0 20 21"
  fill="none"
  xmlns="http://www.w3.org/2000/svg"
>
  <path
    d="M1.06364 6.00914C2.70909 2.74092 6.09084 0.5 10 0.5C12.6954 0.5 14.959 1.49095 16.6909 3.10455L13.8227 5.97274C12.7864 4.98185 11.4681 4.47727 10 4.47727C7.39542 4.47727 5.19084 6.23637 4.40455 8.6C4.2045 9.2 4.09086 9.8409 4.09086 10.5C4.09086 11.1591 4.2045 11.8 4.40455 12.4C5.19084 14.7636 7.39542 16.5227 10 16.5227C11.3454 16.5227 12.4909 16.1682 13.3864 15.5682C14.4454 14.8591 15.15 13.8 15.3818 12.55H10V8.6818H19.4181C19.5364 9.3363 19.6 10.0182 19.6 10.7273C19.6 13.7727 18.5091 16.3363 16.6181 18.0773C14.9636 19.6046 12.7 20.5 10 20.5C6.09084 20.5 2.70909 18.2591 1.06364 14.9909C0.38638 13.6409 0 12.1136 0 10.5C0 8.8864 0.38638 7.35911 1.06364 6.00914Z"
    fill="url(#paint0_linear_34_185)"
  />
  <defs>
    <linearGradient
      id="paint0_linear_34_185"
      x1="-1"
      y1="6"
      x2="23.5"
      y2="13"
      gradientUnits="userSpaceOnUse"
    >
      <stop stop-color="#FF0000" />
      <stop offset="0.318392" stop-color="#FFC400" />
      <stop offset="0.525916" stop-color="#09B509" />
      <stop offset="0.891677" stop-color="#160AC1" />
    </linearGradient>
  </defs>
</svg>
